<?xml version="1.0" standalone="no"?><!DOCTYPE svg PUBLIC "-//W3C//DTD SVG 1.1//EN" "http://www.w3.org/Graphics/SVG/1.1/DTD/svg11.dtd"><svg t="1725634526670" class="icon" viewBox="0 0 1344 1024" version="1.1" xmlns="http://www.w3.org/2000/svg" p-id="5190" width="168" height="128" xmlns:xlink="http://www.w3.org/1999/xlink"><path d="M1086.656 415.616C1072.992 204.032 925.856 0 656 0 409.184 0 218.848 183.456 208.768 428.288 73.728 470.304 0 614.816 0 720 0 881.952 134.592 1024 288 1024h208a16 16 0 0 0 0-32H288c-136.384 0-256-127.104-256-272C32 622.368 117.568 448 288 448h48a16 16 0 0 0 0-32H288c-16.288 0-31.68 1.824-46.688 4.448C253.856 228.768 399.552 32 656 32 930.816 32 1056 247.648 1056 448v48a16 16 0 0 0 32 0V448v-0.288c96.608 10.592 224 114.272 224 272.288 0 122.432-118.112 272-256 272h-240c-103.616 0-144-40.384-144-144V409.056l130.496 130.24a16 16 0 1 0 22.656-22.592l-142.752-142.464c-19.008-18.944-33.76-18.944-52.736 0l-142.752 142.464a16 16 0 0 0 22.624 22.624L640 409.056V848c0 121.728 54.272 176 176 176H1056c155.104 0 288-167.168 288-304 0-165.344-135.136-294.656-257.344-304.384z" fill="#5FCEB3" p-id="5191"></path></svg>