<?xml version="1.0" standalone="no"?><!DOCTYPE svg PUBLIC "-//W3C//DTD SVG 1.1//EN" "http://www.w3.org/Graphics/SVG/1.1/DTD/svg11.dtd"><svg t="1725641579639" class="icon" viewBox="0 0 1024 1024" version="1.1" xmlns="http://www.w3.org/2000/svg" p-id="15258" xmlns:xlink="http://www.w3.org/1999/xlink" width="128" height="128"><path d="M511.996864 1023.998208C267.77436 1023.998208 57.548448 851.455265 9.894339 611.891932-37.759769 372.354199 90.457046 132.483669 316.106864 39.018641c225.662618-93.465028 485.910624-14.502311 621.602593 188.581245 135.691969 203.083556 109.029732 473.750698-63.67961 646.44724A508.681684 508.681684 0 0 1 511.996864 1023.998208z m0-970.054858c-252.580853 0-458.070794 205.489941-458.070794 458.083594 0 252.593653 205.489941 458.070794 458.083594 458.070794 252.593653 0 458.070794-205.477141 458.070794-458.070794 0-252.593653-205.477141-458.083594-458.070794-458.083594z m244.619302 342.564301L693.090155 332.802442 459.965183 564.993019l-127.039222-126.808823-64.127607 63.103614 127.653618 126.808823L459.965183 691.200246l296.650983-294.692595z" fill="#41C88E" p-id="15259"></path></svg>