<?xml version="1.0" standalone="no"?><!DOCTYPE svg PUBLIC "-//W3C//DTD SVG 1.1//EN" "http://www.w3.org/Graphics/SVG/1.1/DTD/svg11.dtd"><svg t="1725700277400" class="icon" viewBox="0 0 1024 1024" version="1.1" xmlns="http://www.w3.org/2000/svg" p-id="18513" xmlns:xlink="http://www.w3.org/1999/xlink" width="128" height="128"><path d="M346.450312 1023.992961a355.281147 355.281147 0 0 1-245.151671-95.987342 317.590118 317.590118 0 0 1 0-465.218649l417.096996-395.659822a264.093173 264.093173 0 0 1 351.249679 0 227.234034 227.234034 0 0 1 0 333.26805l-417.096996 395.787805a159.978903 159.978903 0 0 1-212.196016 0 137.32589 137.32589 0 0 1 0-201.381442l417.096995-395.851798a53.752911 53.752911 0 0 1 73.142354 0 47.289764 47.289764 0 0 1 0 69.366853L313.494658 664.232404a42.490397 42.490397 0 0 0 0 62.391772 48.313629 48.313629 0 0 0 65.847316 0l417.096996-395.59583a132.846481 132.846481 0 0 0 0-194.534346 150.700126 150.700126 0 0 0-204.772996 0L174.568979 532.217814a222.818616 222.818616 0 0 0 0 326.356961 252.89465 252.89465 0 0 0 343.954641 0l417.096995-395.723813a53.68892 53.68892 0 0 1 73.142354 0 47.289764 47.289764 0 0 1 0 69.366852l-417.096995 395.787805a355.153164 355.153164 0 0 1-245.215662 95.987342z" fill="#5FCEB3" p-id="18514"></path></svg>